<mxfile host="app.diagrams.net" modified="2020-10-13T08:58:39.837Z" agent="5.0 (Windows NT 10.0; Win64; x64) AppleWebKit/537.36 (KHTML, like Gecko) Chrome/85.0.4183.83 Safari/537.36" etag="V4zqaN18K9MrgeycvP7S" version="13.7.9" type="github">
  <diagram id="S_R4nGMnFpEOrQA_f0qO" name="Page-1">
    <mxGraphModel dx="1038" dy="556" grid="1" gridSize="10" guides="1" tooltips="1" connect="1" arrows="1" fold="1" page="1" pageScale="1" pageWidth="827" pageHeight="1169" math="0" shadow="0">
      <root>
        <mxCell id="0" />
        <mxCell id="1" parent="0" />
        <mxCell id="pK-OEUVRTUX_8n5EixB8-1" value="" style="endArrow=none;dashed=1;html=1;dashPattern=1 3;strokeWidth=2;" edge="1" parent="1">
          <mxGeometry width="50" height="50" relative="1" as="geometry">
            <mxPoint x="160" y="290" as="sourcePoint" />
            <mxPoint x="160" y="120" as="targetPoint" />
          </mxGeometry>
        </mxCell>
        <mxCell id="pK-OEUVRTUX_8n5EixB8-3" value="&lt;font style=&quot;font-size: 18px&quot;&gt;&lt;b&gt;M&lt;/b&gt;&lt;/font&gt;" style="text;html=1;strokeColor=none;fillColor=none;align=center;verticalAlign=middle;whiteSpace=wrap;rounded=0;" vertex="1" parent="1">
          <mxGeometry x="60" y="170" width="40" height="20" as="geometry" />
        </mxCell>
        <mxCell id="pK-OEUVRTUX_8n5EixB8-4" value="&lt;font style=&quot;font-size: 18px&quot;&gt;&lt;b&gt;S&lt;/b&gt;&lt;/font&gt;" style="text;html=1;strokeColor=none;fillColor=none;align=center;verticalAlign=middle;whiteSpace=wrap;rounded=0;" vertex="1" parent="1">
          <mxGeometry x="210" y="170" width="40" height="20" as="geometry" />
        </mxCell>
        <mxCell id="pK-OEUVRTUX_8n5EixB8-5" value="" style="endArrow=classic;html=1;" edge="1" parent="1">
          <mxGeometry width="50" height="50" relative="1" as="geometry">
            <mxPoint x="80" y="240" as="sourcePoint" />
            <mxPoint x="240" y="240" as="targetPoint" />
          </mxGeometry>
        </mxCell>
        <mxCell id="pK-OEUVRTUX_8n5EixB8-6" value="&lt;b&gt;redo log&lt;/b&gt;" style="text;html=1;strokeColor=none;fillColor=none;align=center;verticalAlign=middle;whiteSpace=wrap;rounded=0;" vertex="1" parent="1">
          <mxGeometry x="130" y="200" width="56" height="20" as="geometry" />
        </mxCell>
        <mxCell id="pK-OEUVRTUX_8n5EixB8-9" value="&lt;b&gt;ncdb_redo_log_deliver&lt;/b&gt;" style="text;html=1;strokeColor=none;fillColor=none;align=center;verticalAlign=middle;whiteSpace=wrap;rounded=0;" vertex="1" parent="1">
          <mxGeometry x="250" y="230" width="120" height="20" as="geometry" />
        </mxCell>
        <mxCell id="pK-OEUVRTUX_8n5EixB8-10" value="" style="endArrow=classic;html=1;" edge="1" parent="1">
          <mxGeometry width="50" height="50" relative="1" as="geometry">
            <mxPoint x="390" y="239.5" as="sourcePoint" />
            <mxPoint x="500" y="240" as="targetPoint" />
          </mxGeometry>
        </mxCell>
        <mxCell id="pK-OEUVRTUX_8n5EixB8-11" value="&lt;b&gt;spaceid + pageno&lt;/b&gt;" style="text;html=1;strokeColor=none;fillColor=none;align=center;verticalAlign=middle;whiteSpace=wrap;rounded=0;" vertex="1" parent="1">
          <mxGeometry x="380" y="200" width="130" height="20" as="geometry" />
        </mxCell>
        <mxCell id="pK-OEUVRTUX_8n5EixB8-13" value="" style="strokeWidth=2;html=1;shape=mxgraph.flowchart.annotation_2;align=left;labelPosition=right;pointerEvents=1;" vertex="1" parent="1">
          <mxGeometry x="510" y="190" width="50" height="100" as="geometry" />
        </mxCell>
        <mxCell id="pK-OEUVRTUX_8n5EixB8-15" value="&lt;b&gt;ncdb_worker_thread&lt;/b&gt;" style="text;html=1;strokeColor=none;fillColor=none;align=center;verticalAlign=middle;whiteSpace=wrap;rounded=0;" vertex="1" parent="1">
          <mxGeometry x="620" y="180" width="40" height="20" as="geometry" />
        </mxCell>
        <mxCell id="pK-OEUVRTUX_8n5EixB8-16" value="" style="endArrow=none;dashed=1;html=1;dashPattern=1 3;strokeWidth=2;" edge="1" parent="1">
          <mxGeometry width="50" height="50" relative="1" as="geometry">
            <mxPoint x="639.5" y="255" as="sourcePoint" />
            <mxPoint x="639.5" y="225" as="targetPoint" />
          </mxGeometry>
        </mxCell>
        <mxCell id="pK-OEUVRTUX_8n5EixB8-17" value="&lt;b&gt;ncdb_worker_thread&lt;/b&gt;" style="text;html=1;strokeColor=none;fillColor=none;align=center;verticalAlign=middle;whiteSpace=wrap;rounded=0;" vertex="1" parent="1">
          <mxGeometry x="620" y="280" width="40" height="20" as="geometry" />
        </mxCell>
        <mxCell id="pK-OEUVRTUX_8n5EixB8-19" value="" style="endArrow=classic;html=1;" edge="1" parent="1">
          <mxGeometry width="50" height="50" relative="1" as="geometry">
            <mxPoint x="720" y="190" as="sourcePoint" />
            <mxPoint x="780" y="190" as="targetPoint" />
          </mxGeometry>
        </mxCell>
        <mxCell id="pK-OEUVRTUX_8n5EixB8-28" style="edgeStyle=orthogonalEdgeStyle;rounded=0;orthogonalLoop=1;jettySize=auto;html=1;exitX=0.25;exitY=1;exitDx=0;exitDy=0;entryX=0.25;entryY=0;entryDx=0;entryDy=0;" edge="1" parent="1" source="pK-OEUVRTUX_8n5EixB8-20" target="pK-OEUVRTUX_8n5EixB8-23">
          <mxGeometry relative="1" as="geometry" />
        </mxCell>
        <mxCell id="pK-OEUVRTUX_8n5EixB8-20" value="&lt;b&gt;ncdb_deal_with_rec_list&lt;/b&gt;" style="text;html=1;strokeColor=none;fillColor=none;align=center;verticalAlign=middle;whiteSpace=wrap;rounded=0;" vertex="1" parent="1">
          <mxGeometry x="850" y="180" width="40" height="20" as="geometry" />
        </mxCell>
        <mxCell id="pK-OEUVRTUX_8n5EixB8-23" value="&lt;b&gt;ncdb_apply_redo_log_rec&lt;/b&gt;" style="text;html=1;strokeColor=none;fillColor=none;align=center;verticalAlign=middle;whiteSpace=wrap;rounded=0;" vertex="1" parent="1">
          <mxGeometry x="850" y="230" width="40" height="20" as="geometry" />
        </mxCell>
      </root>
    </mxGraphModel>
  </diagram>
</mxfile>
